<svg aria-hidden="true" style="position: absolute; width: 0; height: 0; overflow: hidden;" version="1.1" xmlns="http://www.w3.org/2000/svg" xmlns:xlink="http://www.w3.org/1999/xlink">
<defs>
<symbol id="icon-Feature1" viewBox="0 0 32 32">
<path fill="#f4f5f7" style="fill: var(--color1, #f4f5f7)" d="M16 0c8.837 0 16 7.163 16 16s-7.163 16-16 16c-8.837 0-16-7.163-16-16s7.163-16 16-16z"></path>
<path fill="#d6b1ff" style="fill: var(--color2, #d6b1ff)" d="M19.84 14.72h3.84l-1.92-2.56-1.92 2.56zM19.84 17.28h3.84l-1.92 2.56-1.92-2.56z"></path>
<path fill="#02897a" style="fill: var(--color3, #02897a)" d="M8.96 8.32h3.84v15.36h-3.84c-0.353 0-0.64-0.287-0.64-0.64v0-14.080c0-0.353 0.287-0.64 0.64-0.64v0zM14.080 8.32h3.84c0.353 0 0.64 0.287 0.64 0.64v0 14.080c0 0.353-0.287 0.64-0.64 0.64v0h-3.84v-15.36z"></path>
</symbol>
<symbol id="icon-Feature3" viewBox="0 0 32 32">
<path fill="#f4f5f7" style="fill: var(--color1, #f4f5f7)" d="M16 0c8.837 0 16 7.163 16 16s-7.163 16-16 16c-8.837 0-16-7.163-16-16s7.163-16 16-16z"></path>
<path fill="#d6b1ff" style="fill: var(--color2, #d6b1ff)" d="M11.52 8.96h-1.92c-0.353 0-0.64 0.287-0.64 0.64v0 12.8c0 0.353 0.287 0.64 0.64 0.64v0h1.92v-14.080z"></path>
<path fill="#f03e3d" style="fill: var(--color4, #f03e3d)" d="M12.8 23.040h6.4v-14.080h-6.4v14.080zM16 20.48c-0.353 0-0.64-0.287-0.64-0.64s0.287-0.64 0.64-0.64v0c0.353 0 0.64 0.287 0.64 0.64s-0.287 0.64-0.64 0.64v0zM16 11.52c0.353 0 0.64 0.287 0.64 0.64s-0.287 0.64-0.64 0.64v0c-0.353 0-0.64-0.287-0.64-0.64s0.287-0.64 0.64-0.64v0zM16 15.36c0.353 0 0.64 0.287 0.64 0.64s-0.287 0.64-0.64 0.64v0c-0.353 0-0.64-0.287-0.64-0.64s0.287-0.64 0.64-0.64v0zM22.4 8.96h-1.92v14.080h1.92c0.353 0 0.64-0.287 0.64-0.64v0-12.8c0-0.353-0.287-0.64-0.64-0.64v0z"></path>
</symbol>
<symbol id="icon-Feature2" viewBox="0 0 32 32">
<path fill="#f4f5f7" style="fill: var(--color1, #f4f5f7)" d="M16 0c8.837 0 16 7.163 16 16s-7.163 16-16 16c-8.837 0-16-7.163-16-16s7.163-16 16-16z"></path>
<path fill="#d6b1ff" style="fill: var(--color2, #d6b1ff)" d="M21.76 23.68h-5.76c-0.353 0-0.64-0.287-0.64-0.64v0-1.28c0-0.353 0.287-0.64 0.64-0.64v0h5.76c0.353 0 0.64 0.287 0.64 0.64v0 1.28c0 0.353-0.287 0.64-0.64 0.64v0z"></path>
<path fill="#11b5e4" style="fill: var(--color5, #11b5e4)" d="M21.76 8.32h-11.52c-0.353 0-0.64 0.287-0.64 0.64v0 1.28c0 0.353 0.287 0.64 0.64 0.64v0h11.52c0.353 0 0.64-0.287 0.64-0.64v0-1.28c0-0.353-0.287-0.64-0.64-0.64v0zM21.76 12.16h-11.52c-0.353 0-0.64 0.287-0.64 0.64v0 6.4c0 0.353 0.287 0.64 0.64 0.64v0h11.52c0.353 0 0.64-0.287 0.64-0.64v0-6.4c0-0.353-0.287-0.64-0.64-0.64v0z"></path>
</symbol>
<symbol id="icon-screen" viewBox="0 0 38 32">
<path d="M3.339 1.299h31.629c0.256 0 0.464 0.208 0.464 0.464v29.774c0 0.256-0.208 0.464-0.464 0.464h-31.629c-0.256 0-0.464-0.208-0.464-0.464v-29.774c0-0.256 0.208-0.464 0.464-0.464z"></path>
</symbol>

<symbol id="icon-screen" viewBox="0 0 38 32">
<path d="M3.339 1.299h31.629c0.256 0 0.464 0.208 0.464 0.464v29.774c0 0.256-0.208 0.464-0.464 0.464h-31.629c-0.256 0-0.464-0.208-0.464-0.464v-29.774c0-0.256 0.208-0.464 0.464-0.464z"></path>
</symbol>

<symbol id="icon-facebook" viewBox="0 0 32 32">
<path fill="none" stroke="#02897a" style="stroke: var(--color1, #02897a)" stroke-linejoin="round" stroke-linecap="round" stroke-miterlimit="4" stroke-width="2.6667" d="M24 2.667h-4c-3.682 0-6.667 2.985-6.667 6.667v0 4h-4v5.333h4v10.667h5.333v-10.667h4l1.333-5.333h-5.333v-4c0-0.736 0.597-1.333 1.333-1.333v0h4v-5.333z"></path>
</symbol>
<symbol id="icon-instagram" viewBox="0 0 31 32">
<path fill="none" stroke="#02897a" style="stroke: var(--color1, #02897a)" stroke-linejoin="round" stroke-linecap="round" stroke-miterlimit="4" stroke-width="2.56" d="M21.76 2.58h-12.8c-3.535 0-6.4 2.865-6.4 6.4v0 12.8c0 3.535 2.865 6.4 6.4 6.4v0h12.8c3.535 0 6.4-2.865 6.4-6.4v0-12.8c0-3.535-2.865-6.4-6.4-6.4v0z"></path>
<path fill="none" stroke="#02897a" style="stroke: var(--color1, #02897a)" stroke-linejoin="round" stroke-linecap="round" stroke-miterlimit="4" stroke-width="2.56" d="M20.48 14.574c0.035 0.226 0.055 0.486 0.055 0.751 0 2.828-2.292 5.12-5.12 5.12-2.563 0-4.686-1.883-5.061-4.341l-0.004-0.028c-0.035-0.226-0.055-0.486-0.055-0.751 0-2.828 2.292-5.12 5.12-5.12 2.563 0 4.686 1.883 5.061 4.341l0.004 0.028zM22.4 8.34h0.013"></path>
</symbol>
<symbol id="icon-twitter" viewBox="0 0 38 32">
<path fill="none" stroke="#02897a" style="stroke: var(--color1, #02897a)" stroke-linejoin="round" stroke-linecap="round" stroke-miterlimit="4" stroke-width="3.2" d="M36.8 1.616c-1.44 1.028-3.109 1.862-4.9 2.415l-0.124 0.033c-1.321-1.513-3.254-2.464-5.409-2.464-3.959 0-7.168 3.209-7.168 7.168 0 0.034 0 0.068 0.001 0.101l-0-0.005v1.6c-0.132 0.004-0.287 0.006-0.442 0.006-5.748 0-10.832-2.844-13.922-7.201l-0.036-0.053s-6.4 14.4 8 20.8c-2.931 2.013-6.555 3.215-10.46 3.215-0.26 0-0.519-0.005-0.777-0.016l0.037 0.001c14.4 8 32 0 32-18.4 0-0.445-0.045-0.89-0.128-1.328 1.587-1.566 2.752-3.556 3.31-5.787l0.018-0.085z"></path>
</symbol>
</defs>
</svg>
