<svg aria-hidden="true" style="position: absolute; width: 0; height: 0; overflow: hidden;" version="1.1" xmlns="http://www.w3.org/2000/svg" xmlns:xlink="http://www.w3.org/1999/xlink">
<defs>
<symbol id="icon-Feature1" viewBox="0 0 32 32">
<path fill="#f4f5f7" style="fill: var(--color1, #f4f5f7)" d="M16 0c8.837 0 16 7.163 16 16s-7.163 16-16 16c-8.837 0-16-7.163-16-16s7.163-16 16-16z"></path>
<path fill="#d6b1ff" style="fill: var(--color2, #d6b1ff)" d="M19.84 14.72h3.84l-1.92-2.56-1.92 2.56zM19.84 17.28h3.84l-1.92 2.56-1.92-2.56z"></path>
<path fill="#02897a" style="fill: var(--color3, #02897a)" d="M8.96 8.32h3.84v15.36h-3.84c-0.353 0-0.64-0.287-0.64-0.64v0-14.080c0-0.353 0.287-0.64 0.64-0.64v0zM14.080 8.32h3.84c0.353 0 0.64 0.287 0.64 0.64v0 14.080c0 0.353-0.287 0.64-0.64 0.64v0h-3.84v-15.36z"></path>
</symbol>
<symbol id="icon-Feature3" viewBox="0 0 32 32">
<path fill="#f4f5f7" style="fill: var(--color1, #f4f5f7)" d="M16 0c8.837 0 16 7.163 16 16s-7.163 16-16 16c-8.837 0-16-7.163-16-16s7.163-16 16-16z"></path>
<path fill="#d6b1ff" style="fill: var(--color2, #d6b1ff)" d="M11.52 8.96h-1.92c-0.353 0-0.64 0.287-0.64 0.64v0 12.8c0 0.353 0.287 0.64 0.64 0.64v0h1.92v-14.080z"></path>
<path fill="#f03e3d" style="fill: var(--color4, #f03e3d)" d="M12.8 23.040h6.4v-14.080h-6.4v14.080zM16 20.48c-0.353 0-0.64-0.287-0.64-0.64s0.287-0.64 0.64-0.64v0c0.353 0 0.64 0.287 0.64 0.64s-0.287 0.64-0.64 0.64v0zM16 11.52c0.353 0 0.64 0.287 0.64 0.64s-0.287 0.64-0.64 0.64v0c-0.353 0-0.64-0.287-0.64-0.64s0.287-0.64 0.64-0.64v0zM16 15.36c0.353 0 0.64 0.287 0.64 0.64s-0.287 0.64-0.64 0.64v0c-0.353 0-0.64-0.287-0.64-0.64s0.287-0.64 0.64-0.64v0zM22.4 8.96h-1.92v14.080h1.92c0.353 0 0.64-0.287 0.64-0.64v0-12.8c0-0.353-0.287-0.64-0.64-0.64v0z"></path>
</symbol>
<symbol id="icon-Feature2" viewBox="0 0 32 32">
<path fill="#f4f5f7" style="fill: var(--color1, #f4f5f7)" d="M16 0c8.837 0 16 7.163 16 16s-7.163 16-16 16c-8.837 0-16-7.163-16-16s7.163-16 16-16z"></path>
<path fill="#d6b1ff" style="fill: var(--color2, #d6b1ff)" d="M21.76 23.68h-5.76c-0.353 0-0.64-0.287-0.64-0.64v0-1.28c0-0.353 0.287-0.64 0.64-0.64v0h5.76c0.353 0 0.64 0.287 0.64 0.64v0 1.28c0 0.353-0.287 0.64-0.64 0.64v0z"></path>
<path fill="#11b5e4" style="fill: var(--color5, #11b5e4)" d="M21.76 8.32h-11.52c-0.353 0-0.64 0.287-0.64 0.64v0 1.28c0 0.353 0.287 0.64 0.64 0.64v0h11.52c0.353 0 0.64-0.287 0.64-0.64v0-1.28c0-0.353-0.287-0.64-0.64-0.64v0zM21.76 12.16h-11.52c-0.353 0-0.64 0.287-0.64 0.64v0 6.4c0 0.353 0.287 0.64 0.64 0.64v0h11.52c0.353 0 0.64-0.287 0.64-0.64v0-6.4c0-0.353-0.287-0.64-0.64-0.64v0z"></path>
</symbol>
<symbol id="icon-screen" viewBox="0 0 38 32">
<path d="M3.339 1.299h31.629c0.256 0 0.464 0.208 0.464 0.464v29.774c0 0.256-0.208 0.464-0.464 0.464h-31.629c-0.256 0-0.464-0.208-0.464-0.464v-29.774c0-0.256 0.208-0.464 0.464-0.464z"></path>
</symbol>

<symbol id="icon-screen" viewBox="0 0 38 32">
<path d="M3.339 1.299h31.629c0.256 0 0.464 0.208 0.464 0.464v29.774c0 0.256-0.208 0.464-0.464 0.464h-31.629c-0.256 0-0.464-0.208-0.464-0.464v-29.774c0-0.256 0.208-0.464 0.464-0.464z"></path>
</symbol>

<symbol id="icon-facebook" viewBox="0 0 32 32">
<path fill="none" stroke="#02897a" style="stroke: var(--color1, #02897a)" stroke-linejoin="round" stroke-linecap="round" stroke-miterlimit="4" stroke-width="2.6667" d="M24 2.667h-4c-3.682 0-6.667 2.985-6.667 6.667v0 4h-4v5.333h4v10.667h5.333v-10.667h4l1.333-5.333h-5.333v-4c0-0.736 0.597-1.333 1.333-1.333v0h4v-5.333z"></path>
</symbol>
<symbol id="icon-instagram" viewBox="0 0 31 32">
<path fill="none" stroke="#02897a" style="stroke: var(--color1, #02897a)" stroke-linejoin="round" stroke-linecap="round" stroke-miterlimit="4" stroke-width="2.56" d="M21.76 2.58h-12.8c-3.535 0-6.4 2.865-6.4 6.4v0 12.8c0 3.535 2.865 6.4 6.4 6.4v0h12.8c3.535 0 6.4-2.865 6.4-6.4v0-12.8c0-3.535-2.865-6.4-6.4-6.4v0z"></path>
<path fill="none" stroke="#02897a" style="stroke: var(--color1, #02897a)" stroke-linejoin="round" stroke-linecap="round" stroke-miterlimit="4" stroke-width="2.56" d="M20.48 14.574c0.035 0.226 0.055 0.486 0.055 0.751 0 2.828-2.292 5.12-5.12 5.12-2.563 0-4.686-1.883-5.061-4.341l-0.004-0.028c-0.035-0.226-0.055-0.486-0.055-0.751 0-2.828 2.292-5.12 5.12-5.12 2.563 0 4.686 1.883 5.061 4.341l0.004 0.028zM22.4 8.34h0.013"></path>
</symbol>
<symbol id="icon-twitter" viewBox="0 0 38 32">
<path fill="none" stroke="#02897a" style="stroke: var(--color1, #02897a)" stroke-linejoin="round" stroke-linecap="round" stroke-miterlimit="4" stroke-width="3.2" d="M36.8 1.616c-1.44 1.028-3.109 1.862-4.9 2.415l-0.124 0.033c-1.321-1.513-3.254-2.464-5.409-2.464-3.959 0-7.168 3.209-7.168 7.168 0 0.034 0 0.068 0.001 0.101l-0-0.005v1.6c-0.132 0.004-0.287 0.006-0.442 0.006-5.748 0-10.832-2.844-13.922-7.201l-0.036-0.053s-6.4 14.4 8 20.8c-2.931 2.013-6.555 3.215-10.46 3.215-0.26 0-0.519-0.005-0.777-0.016l0.037 0.001c14.4 8 32 0 32-18.4 0-0.445-0.045-0.89-0.128-1.328 1.587-1.566 2.752-3.556 3.31-5.787l0.018-0.085z"></path>
</symbol>

<symbol id="icon-Google-Logo" viewBox="0 0 93 32">
<path fill="#ea4335" style="fill: var(--color1, #ea4335)" d="M39.763 16.41c0 4.442-3.432 7.715-7.643 7.715s-7.644-3.274-7.644-7.715c0-4.473 3.432-7.715 7.644-7.715s7.644 3.242 7.644 7.715zM36.418 16.41c0-2.776-1.989-4.675-4.298-4.675s-4.298 1.899-4.298 4.675c0 2.748 1.989 4.675 4.298 4.675s4.298-1.931 4.298-4.675z"></path>
<path fill="#fbbc05" style="fill: var(--color2, #fbbc05)" d="M56.253 16.41c0 4.442-3.432 7.715-7.644 7.715s-7.644-3.274-7.644-7.715c0-4.469 3.432-7.715 7.644-7.715s7.644 3.242 7.644 7.715zM52.907 16.41c0-2.776-1.989-4.675-4.298-4.675s-4.298 1.899-4.298 4.675c0 2.748 1.989 4.675 4.298 4.675s4.298-1.931 4.298-4.675z"></path>
<path fill="#4285f4" style="fill: var(--color3, #4285f4)" d="M72.055 9.162v13.85c0 5.698-3.318 8.024-7.242 8.024-3.693 0-5.916-2.5-6.753-4.546l2.913-1.228c0.518 1.256 1.79 2.737 3.837 2.737 2.511 0 4.067-1.569 4.067-4.522v-1.11h-0.116c-0.749 0.936-2.192 1.754-4.013 1.754-3.809 0-7.3-3.36-7.3-7.684 0-4.355 3.491-7.743 7.3-7.743 1.818 0 3.26 0.817 4.013 1.725h0.116v-1.255h3.178v-0.004zM69.115 16.438c0-2.717-1.79-4.703-4.068-4.703-2.308 0-4.243 1.986-4.243 4.703 0 2.688 1.934 4.646 4.243 4.646 2.278 0 4.068-1.958 4.068-4.646z"></path>
<path fill="#34a853" style="fill: var(--color4, #34a853)" d="M77.294 1.043v22.609h-3.263v-22.609h3.263z"></path>
<path fill="#ea4335" style="fill: var(--color1, #ea4335)" d="M90.012 18.95l2.597 1.753c-0.838 1.256-2.858 3.419-6.348 3.419-4.328 0-7.561-3.388-7.561-7.715 0-4.588 3.26-7.715 7.187-7.715 3.954 0 5.888 3.186 6.52 4.908l0.347 0.877-10.186 4.271c0.78 1.548 1.992 2.338 3.693 2.338 1.704 0 2.886-0.849 3.751-2.136zM82.018 16.174l6.809-2.863c-0.374-0.964-1.501-1.635-2.828-1.635-1.7 0-4.067 1.52-3.981 4.498z"></path>
<path fill="#4285f4" style="fill: var(--color3, #4285f4)" d="M12.124 14.403v-3.273h10.893c0.107 0.571 0.162 1.245 0.162 1.976 0 2.456-0.663 5.492-2.8 7.656-2.078 2.191-4.734 3.36-8.252 3.36-6.52 0-12.003-5.377-12.003-11.979s5.483-11.98 12.003-11.98c3.607 0 6.176 1.434 8.108 3.301l-2.282 2.31c-1.384-1.315-3.26-2.337-5.829-2.337-4.762 0-8.486 3.885-8.486 8.706s3.724 8.706 8.486 8.706c3.088 0 4.847-1.256 5.974-2.397 0.914-0.925 1.515-2.246 1.752-4.052l-7.725 0.003z"></path>
</symbol>

<symbol id="icon-FedEx-Logo" viewBox="0 0 107 32">
<path fill="#f60" style="fill: var(--color5, #f60)" d="M79.321 31.042l8.896-9.852-8.896-9.854h9.386l4.406 4.786 4.242-4.786h9.058l-8.853 9.813 8.975 9.893h-9.425l-4.366-4.826-4.325 4.826h-9.099z"></path>
<path fill="#f60" style="fill: var(--color5, #f60)" d="M79.321 6.919h-10.075v4.418h10.075v6.658h-10.075v6.11h10.075v6.938h-17.48v-31.042h17.48v6.919z"></path>
<path fill="#652c8f" style="fill: var(--color6, #652c8f)" d="M54.468 0v12.704h-0.082c-1.632-1.85-3.672-2.492-6.039-2.492-4.847 0-8.499 3.248-9.781 7.543-1.461-4.731-5.231-7.632-10.821-7.632-4.54 0-8.125 2.009-9.996 5.282v-4.069h-9.383v-4.417h10.24v-6.92h-18.606v31.043h8.365v-13.049h8.338c-0.242 0.908-0.381 1.95-0.381 3.025 0 0.015 0 0.030 0 0.044v-0.002c0 6.476 5.019 11.019 11.423 11.019 5.385 0 8.935-2.493 10.811-7.037h-7.168c-0.97 1.365-1.705 1.771-3.643 1.771-2.248 0-4.186-1.933-4.186-4.225h14.597c0.632 5.143 4.697 9.579 10.275 9.579 0.008 0 0.017 0 0.026 0 2.454 0 4.62-1.232 5.914-3.112l0.016-0.024h0.082v2.009h7.374v-31.042h-7.373zM23.791 18.086c0.465-1.971 2.017-3.26 3.954-3.26 2.132 0 3.604 1.25 3.992 3.261h-7.945zM49.993 26.316c-2.718 0-4.408-2.497-4.408-5.103 0-2.786 1.469-5.466 4.408-5.466 3.046 0 4.26 2.68 4.26 5.466 0 2.642-1.286 5.103-4.26 5.103z"></path>
</symbol>

<symbol id="icon-Microsoft-Logo" viewBox="0 0 155 32">
<path fill="#737373" style="fill: var(--color7, #737373)" d="M54.68 18.431l-0.924 2.53h-0.077c-0.153-0.571-0.436-1.439-0.897-2.481l-4.949-12.031h-4.847v19.175h3.206v-11.833c0-0.744 0-1.588-0.025-2.629-0.025-0.521-0.077-0.918-0.103-1.215h0.077c0.153 0.744 0.333 1.289 0.461 1.636l5.951 13.991h2.257l5.899-14.115c0.128-0.322 0.257-0.967 0.385-1.513h0.077c-0.047 0.741-0.102 1.941-0.146 3.144l-0.009 0.304v12.156h3.411v-19.151h-4.668l-5.078 12.031zM67.657 11.808h3.334v13.743h-3.333v-13.743zM69.35 6.003c-0.564 0-1.025 0.199-1.411 0.545-0.384 0.348-0.589 0.794-0.589 1.34 0 0.521 0.205 0.967 0.589 1.314 0.385 0.348 0.847 0.521 1.411 0.521s1.052-0.198 1.411-0.521c0.362-0.317 0.59-0.78 0.59-1.296 0-0.006-0-0.013-0-0.019v0.001c0-0.521-0.205-0.967-0.59-1.34-0.334-0.348-0.821-0.545-1.411-0.545zM82.815 11.684c-0.561-0.121-1.206-0.193-1.868-0.199l-0.004-0c-1.513 0-2.898 0.323-4.052 0.967s-2.077 1.538-2.667 2.655c-0.616 1.141-0.924 2.456-0.924 3.969 0 1.315 0.308 2.481 0.897 3.548 0.59 1.041 1.411 1.885 2.513 2.456 1.052 0.57 2.283 0.868 3.668 0.868 1.591 0 2.95-0.323 4.027-0.918l0.025-0.025v-2.977l-0.128 0.1c-0.487 0.347-1.052 0.645-1.616 0.818-0.59 0.199-1.129 0.298-1.59 0.298-1.334 0-2.385-0.372-3.129-1.191-0.769-0.793-1.154-1.885-1.154-3.249 0-1.414 0.385-2.53 1.18-3.348s1.847-1.241 3.129-1.241c1.077 0 2.18 0.348 3.18 1.042l0.128 0.099v-3.151l-0.025-0.025c-0.436-0.173-0.924-0.372-1.591-0.496zM93.817 11.585c-0.010-0-0.023-0-0.035-0-0.842 0-1.616 0.29-2.229 0.775l0.007-0.006c-0.564 0.447-0.949 1.091-1.283 1.86h-0.025v-2.406h-3.334v13.743h3.334v-7.020c0-1.191 0.257-2.183 0.821-2.902 0.564-0.745 1.282-1.117 2.154-1.117 0.308 0 0.615 0.075 1 0.124 0.359 0.099 0.616 0.199 0.795 0.322l0.129 0.1v-3.225l-0.077-0.025c-0.231-0.149-0.692-0.223-1.257-0.223zM102.897 11.51c-2.334 0-4.207 0.67-5.514 1.985-1.334 1.315-1.975 3.126-1.975 5.408 0 2.133 0.667 3.869 1.95 5.135 1.282 1.241 3.026 1.885 5.206 1.885 2.283 0 4.104-0.669 5.412-2.009 1.334-1.34 1.975-3.126 1.975-5.334 0-2.183-0.616-3.919-1.873-5.184-1.205-1.265-2.975-1.886-5.18-1.886zM105.564 22.077c-0.615 0.769-1.59 1.142-2.796 1.142s-2.18-0.372-2.872-1.191c-0.692-0.769-1.026-1.885-1.026-3.299 0-1.463 0.359-2.58 1.026-3.374 0.692-0.793 1.641-1.191 2.847-1.191 1.18 0 2.103 0.372 2.77 1.141s1.025 1.885 1.025 3.349c-0.051 1.488-0.333 2.655-0.975 3.423zM117.387 17.513c-1.051-0.422-1.718-0.745-2.025-1.017-0.257-0.248-0.385-0.596-0.385-1.041 0-0.372 0.153-0.745 0.538-0.993s0.821-0.372 1.462-0.372c0.564 0 1.154 0.099 1.719 0.247s1.077 0.372 1.487 0.671l0.129 0.099v-3.026l-0.077-0.025c-0.423-0.163-0.93-0.309-1.453-0.412l-0.060-0.010c-0.489-0.087-1.056-0.141-1.634-0.149l-0.007-0c-1.59 0-2.898 0.372-3.924 1.191-1.026 0.769-1.513 1.811-1.513 3.027 0 0.644 0.103 1.215 0.334 1.687 0.252 0.513 0.598 0.943 1.018 1.285l0.007 0.006c0.462 0.347 1.129 0.744 2.052 1.116 0.769 0.322 1.359 0.57 1.719 0.769s0.59 0.422 0.769 0.596c0.128 0.198 0.205 0.447 0.205 0.769 0 0.918-0.718 1.364-2.18 1.364-0.564 0-1.154-0.1-1.847-0.323-0.714-0.233-1.334-0.544-1.897-0.934l0.024 0.016-0.128-0.099v3.151l0.077 0.025c0.487 0.223 1.077 0.372 1.795 0.545 0.719 0.124 1.359 0.223 1.924 0.223 1.719 0 3.129-0.372 4.129-1.191 1.025-0.793 1.564-1.811 1.564-3.126 0-0.918-0.257-1.736-0.821-2.356-0.857-0.703-1.85-1.282-2.929-1.687l-0.072-0.024zM130.006 11.51c-2.334 0-4.207 0.67-5.514 1.985s-1.975 3.126-1.975 5.408c0 2.133 0.667 3.869 1.95 5.135 1.282 1.241 3.026 1.885 5.206 1.885 2.283 0 4.104-0.669 5.412-2.009 1.334-1.34 1.975-3.126 1.975-5.334 0-2.183-0.616-3.919-1.873-5.184-1.205-1.265-2.975-1.886-5.18-1.886zM132.647 22.077c-0.615 0.769-1.59 1.142-2.796 1.142-1.231 0-2.18-0.372-2.872-1.191-0.693-0.769-1.026-1.885-1.026-3.299 0-1.463 0.359-2.58 1.026-3.374 0.692-0.793 1.641-1.191 2.847-1.191 1.154 0 2.103 0.372 2.77 1.141s1.025 1.885 1.025 3.349c0 1.488-0.333 2.655-0.975 3.423zM154.884 14.463v-2.655h-3.36v-4.068l-0.103 0.025-3.257 0.943v3.101h-5.027v-1.737c0-0.793 0.206-1.414 0.564-1.811s0.898-0.596 1.564-0.596c0.462 0 0.949 0.1 1.488 0.323l0.128 0.074v-2.803l-0.077-0.025c-0.461-0.149-1.077-0.248-1.872-0.248-0.007-0-0.014-0-0.022-0-0.961 0-1.871 0.219-2.682 0.611l0.037-0.016c-0.795 0.422-1.385 0.993-1.82 1.761-0.436 0.744-0.667 1.588-0.667 2.555v1.911h-2.334v2.629h2.334v11.113h3.359v-11.087h5.027v7.070c0 2.902 1.411 4.366 4.232 4.366 0.462 0 0.949-0.074 1.411-0.148 0.487-0.1 0.846-0.223 1.052-0.323l0.025-0.025v-2.655l-0.129 0.1c-0.205 0.124-0.385 0.223-0.692 0.298-0.256 0.073-0.487 0.099-0.667 0.099-0.666 0-1.128-0.149-1.462-0.521-0.308-0.347-0.461-0.918-0.461-1.761v-6.5h3.411z"></path>
<path fill="#f25022" style="fill: var(--color8, #f25022)" d="M0 0h15.721v15.207h-15.721v-15.207z"></path>
<path fill="#7fba00" style="fill: var(--color9, #7fba00)" d="M17.363 0h15.721v15.207h-15.721v-15.207z"></path>
<path fill="#00a4ef" style="fill: var(--color10, #00a4ef)" d="M0 16.793h15.721v15.207h-15.721v-15.207z"></path>
<path fill="#ffb900" style="fill: var(--color11, #ffb900)" d="M17.363 16.793h15.721v15.207h-15.721v-15.207z"></path>
</symbol>


<symbol id="icon-Airbnb-Logo" viewBox="0 0 102 32">
<path fill="#ff385c" style="fill: var(--color12, #ff385c)" d="M29.171 22.679c-0.16-0.39-0.309-0.8-0.469-1.15l-0.738-1.67-0.030-0.030c-2.195-4.8-4.54-9.68-7.023-14.48l-0.1-0.2c-0.25-0.47-0.499-0.99-0.758-1.47-0.319-0.57-0.628-1.18-1.137-1.76-0.976-1.188-2.445-1.94-4.089-1.942h-0c-0 0-0.001 0-0.001 0-1.645 0-3.115 0.753-4.083 1.933l-0.007 0.009c-0.469 0.58-0.818 1.19-1.137 1.76-0.25 0.52-0.499 1.030-0.758 1.5l-0.1 0.2c-2.444 4.799-4.828 9.679-7.023 14.479l-0.060 0.060c-0.22 0.52-0.479 1.060-0.728 1.64-0.124 0.254-0.285 0.634-0.434 1.019l-0.045 0.131c-0.297 0.737-0.47 1.591-0.47 2.486 0 1.583 0.54 3.041 1.446 4.198l-0.011-0.015c0.719 0.919 1.652 1.639 2.725 2.090l0.045 0.017c1.091 0.449 2.278 0.605 3.448 0.454 1.189-0.161 2.261-0.549 3.21-1.121l-0.038 0.021c1.297-0.73 2.544-1.79 3.94-3.32 1.397 1.53 2.674 2.59 3.941 3.33 1.149 0.687 2.526 1.109 3.999 1.15l0.011 0c0.008 0 0.018 0 0.028 0 1.698 0 3.249-0.625 4.437-1.658l-0.008 0.007c1.204-1.047 2.033-2.499 2.274-4.142l0.004-0.037c0.095-0.399 0.15-0.857 0.15-1.329 0-0.781-0.151-1.527-0.424-2.211l0.014 0.040v0.010zM14.845 24.339c-1.715-2.2-2.833-4.22-3.213-5.95-0.095-0.372-0.149-0.799-0.149-1.239 0-0.254 0.018-0.504 0.053-0.749l-0.003 0.028c0.070-0.51 0.259-0.96 0.518-1.34 0.599-0.87 1.647-1.41 2.794-1.41 0.030-0.001 0.066-0.002 0.102-0.002 1.109 0 2.090 0.549 2.685 1.391l0.007 0.010c0.259 0.4 0.449 0.84 0.509 1.35 0.1 0.58 0.060 1.25-0.1 1.96-0.379 1.7-1.496 3.74-3.203 5.95zM27.555 25.82c-0.122 0.864-0.459 1.633-0.956 2.272l0.008-0.011c-0.504 0.649-1.159 1.158-1.914 1.477l-0.031 0.012c-0.758 0.32-1.596 0.41-2.414 0.32-0.798-0.1-1.596-0.36-2.415-0.84-1.392-0.871-2.585-1.898-3.604-3.079l-0.017-0.020c2.095-2.6 3.362-4.97 3.841-7.080 0.23-1 0.26-1.9 0.16-2.73-0.134-0.832-0.436-1.574-0.87-2.22l0.013 0.020c-0.505-0.715-1.162-1.29-1.927-1.686l-0.030-0.014c-0.704-0.366-1.538-0.581-2.421-0.581-0.036 0-0.072 0-0.108 0.001l0.005-0c-1.846 0-3.492 0.86-4.49 2.269-0.43 0.626-0.731 1.375-0.845 2.183l-0.003 0.027c-0.047 0.297-0.074 0.639-0.074 0.987 0 0.62 0.086 1.22 0.245 1.789l-0.011-0.046c0.479 2.11 1.776 4.51 3.841 7.1-1.021 1.227-2.217 2.263-3.559 3.084l-0.063 0.036c-0.828 0.48-1.616 0.73-2.415 0.83-0.181 0.024-0.39 0.038-0.603 0.038-1.091 0-2.095-0.368-2.896-0.987l0.011 0.008c-0.97-0.749-1.639-1.848-1.817-3.104l-0.003-0.025c-0.099-0.8-0.029-1.6 0.29-2.5 0.099-0.32 0.25-0.64 0.409-1.020 0.22-0.52 0.479-1.060 0.728-1.6l0.040-0.070c3.054-6.824 5.379-11.555 7.813-16.22l-0.86 1.81 0.1-0.2c0.25-0.48 0.499-0.99 0.758-1.47 0.26-0.51 0.539-1 0.899-1.4 0.611-0.728 1.521-1.187 2.539-1.188h0c1.018 0 1.928 0.46 2.535 1.183l0.004 0.005c0.349 0.4 0.639 0.89 0.898 1.4 0.25 0.48 0.499 1 0.758 1.47l0.1 0.2c1.384 2.468 3.718 7.198 5.96 11.98l1.024 2.43 0.030 0.030c0.259 0.52 0.479 1.1 0.728 1.6 0.16 0.39 0.319 0.7 0.419 1.030 0.189 0.9 0.289 1.7 0.189 2.5zM41.443 24.119c-0.022 0-0.048 0.001-0.074 0.001-1.554 0-2.943-0.71-3.86-1.822l-0.007-0.009c-0.993-1.143-1.599-2.647-1.599-4.292 0-0.066 0.001-0.132 0.003-0.198l-0 0.010c-0-0.020-0-0.044-0-0.068 0-1.725 0.627-3.304 1.665-4.521l-0.008 0.010c0.976-1.142 2.418-1.861 4.027-1.861 0.015 0 0.030 0 0.046 0h-0.002c0.035-0.001 0.077-0.002 0.118-0.002 1.486 0 2.795 0.757 3.563 1.906l0.010 0.016 0.1-1.57h2.913v12.080h-2.923l-0.1-1.76c-0.812 1.259-2.208 2.081-3.795 2.081-0.027 0-0.053-0-0.080-0.001l0.004 0zM42.2 21.239c0.579 0 1.088-0.16 1.567-0.45 0.439-0.32 0.798-0.74 1.077-1.25 0.25-0.51 0.38-1.12 0.38-1.8 0.005-0.067 0.007-0.145 0.007-0.224 0-1.162-0.578-2.189-1.463-2.809l-0.011-0.007c-0.442-0.28-0.98-0.446-1.556-0.446s-1.115 0.166-1.569 0.453l0.012-0.007c-0.438 0.32-0.797 0.74-1.077 1.251-0.24 0.5-0.38 1.086-0.38 1.706 0 0.033 0 0.066 0.001 0.099l-0-0.005c-0.005 0.067-0.007 0.145-0.007 0.224 0 1.162 0.578 2.189 1.463 2.809l0.011 0.007c0.438 0.282 0.972 0.45 1.546 0.45 0 0 0 0 0.001 0h-0zM53.325 8.46c0 0.349-0.060 0.669-0.22 0.93-0.16 0.25-0.379 0.48-0.668 0.64s-0.599 0.22-0.918 0.22c-0.32 0-0.639-0.060-0.928-0.22-0.276-0.156-0.501-0.372-0.664-0.632l-0.005-0.008c-0.139-0.251-0.221-0.551-0.221-0.869 0-0.021 0-0.043 0.001-0.064l-0 0.003c0-0.36 0.070-0.68 0.22-0.93 0.159-0.3 0.389-0.48 0.668-0.64 0.289-0.16 0.598-0.23 0.928-0.23 0.013-0 0.028-0 0.043-0 0.652 0 1.224 0.34 1.549 0.853l0.004 0.008c0.145 0.291 0.217 0.614 0.209 0.94zM49.933 23.759v-12.060h3.172v12.080h-3.182l0.010-0.020zM61.585 14.859v0.040c-0.15-0.070-0.349-0.1-0.499-0.13-0.199-0.040-0.358-0.040-0.548-0.040-0.888 0-1.556 0.26-1.996 0.8-0.479 0.55-0.698 1.32-0.698 2.31v5.93h-3.183v-12.080h2.923l0.1 1.83c0.319-0.64 0.698-1.12 1.237-1.48 0.476-0.315 1.060-0.502 1.688-0.502 0.042 0 0.083 0.001 0.124 0.002l-0.006-0c0.229 0 0.449 0.020 0.638 0.060 0.1 0.030 0.16 0.030 0.22 0.060v3.2zM62.863 23.759v-17.020h3.172v6.5c0.449-0.58 0.957-1.030 1.596-1.38 0.644-0.324 1.403-0.513 2.206-0.513 1.551 0 2.936 0.706 3.853 1.815l0.007 0.008c0.994 1.143 1.599 2.646 1.599 4.291 0 0.070-0.001 0.14-0.003 0.209l0-0.010c0 0.021 0 0.046 0 0.070 0 1.725-0.626 3.303-1.664 4.52l0.008-0.010c-0.975 1.141-2.415 1.86-4.023 1.86-0.017 0-0.034-0-0.050-0l0.003 0c-0.035 0.001-0.077 0.002-0.119 0.002-1.486 0-2.795-0.757-3.563-1.906l-0.010-0.016-0.1 1.57-2.913 0.030v-0.020zM68.998 21.239c0.569 0 1.078-0.16 1.556-0.45 0.439-0.32 0.798-0.74 1.078-1.25 0.259-0.51 0.379-1.12 0.379-1.8 0-0.669-0.12-1.28-0.379-1.789-0.27-0.5-0.633-0.918-1.068-1.243l-0.010-0.007c-0.442-0.28-0.98-0.446-1.556-0.446s-1.114 0.166-1.568 0.453l0.012-0.007c-0.449 0.32-0.799 0.74-1.088 1.25-0.24 0.5-0.38 1.086-0.38 1.705 0 0.033 0 0.066 0.001 0.099l-0-0.005c-0.005 0.067-0.007 0.146-0.007 0.226 0 1.162 0.579 2.188 1.463 2.807l0.011 0.007c0.438 0.282 0.973 0.45 1.547 0.45 0.003 0 0.006 0 0.009 0h-0zM76.49 23.769v-12.080h2.923l0.1 1.571c0.706-1.143 1.953-1.894 3.374-1.894 0.056 0 0.111 0.001 0.166 0.003l-0.008-0c0.021-0 0.045-0.001 0.070-0.001 0.818 0 1.58 0.241 2.218 0.655l-0.016-0.010c0.675 0.437 1.203 1.048 1.528 1.77l0.010 0.026c0.349 0.76 0.539 1.7 0.539 2.75v7.24h-3.183v-6.82c0-0.84-0.189-1.5-0.568-1.99-0.38-0.48-0.898-0.74-1.556-0.74-0.479 0-0.898 0.1-1.267 0.32-0.349 0.23-0.638 0.52-0.858 0.931-0.202 0.369-0.32 0.809-0.32 1.276 0 0.026 0 0.052 0.001 0.077l-0-0.004v6.92h-3.153zM88.981 23.769v-17.040h3.182v6.5c0.852-1.146 2.2-1.883 3.72-1.89h0.001c0.022-0 0.048-0.001 0.074-0.001 1.554 0 2.943 0.709 3.86 1.822l0.007 0.009c0.987 1.144 1.589 2.645 1.589 4.287 0 0.068-0.001 0.136-0.003 0.203l0-0.010c0 0.022 0 0.048 0 0.074 0 1.723-0.626 3.3-1.664 4.516l0.008-0.010c-0.974 1.141-2.414 1.86-4.022 1.86-0.017 0-0.034-0-0.051-0l0.003 0c-0.035 0.001-0.077 0.002-0.119 0.002-1.486 0-2.795-0.757-3.563-1.906l-0.010-0.016-0.090 1.57-2.923 0.030zM95.146 21.239c0.579 0 1.087-0.16 1.556-0.45 0.449-0.32 0.798-0.74 1.087-1.25 0.25-0.51 0.379-1.12 0.379-1.8 0.005-0.068 0.007-0.147 0.007-0.226 0-1.161-0.578-2.187-1.463-2.806l-0.011-0.007c-0.442-0.28-0.98-0.446-1.556-0.446s-1.115 0.166-1.569 0.453l0.012-0.007c-0.439 0.32-0.798 0.74-1.077 1.251-0.242 0.474-0.384 1.034-0.384 1.627 0 0.061 0.001 0.121 0.004 0.181l-0-0.008c-0.005 0.068-0.007 0.146-0.007 0.226 0 1.162 0.579 2.188 1.463 2.807l0.011 0.007c0.469 0.29 0.948 0.45 1.546 0.45z"></path>
</symbol>

<symbol id="icon-heart" viewBox="0 0 34 32">
<path fill="#fff" style="fill: var(--color1, #fff)" d="M17.067 30.172c0.002 0 0.005 0 0.008 0 0.324 0 0.617-0.13 0.831-0.341l-0 0 11.866-11.43c0.171-0.171 4.363-4 4.363-8.572 0-5.581-3.409-8.911-9.105-8.911-3.332-0.002-6.458 2.624-7.962 4.111-1.504-1.485-4.629-4.111-7.962-4.111-5.696-0.002-9.105 3.328-9.105 8.911 0 4.572 4.19 8.401 4.343 8.533l11.885 11.467c0.228 0.228 0.533 0.341 0.838 0.341z"></path>
</symbol>

<symbol id="icon-wave" viewBox="0 0 41 32">
<path fill="#fff" style="fill: var(--color1, #fff)" d="M21.673 12.898l2.674 1.246 3.977-1.184v-2.777c0-4.713-3.977-8.489-8.731-8.489-4.736 0-8.736 3.755-8.736 8.432v12.651c0 1.166-0.937 2.082-2.080 2.082s-2.082-0.919-2.082-2.080v-5.349h-6.695v5.426c0 4.835 3.919 8.754 8.754 8.754v0c4.798 0 8.754-3.856 8.754-8.631v-12.491c0-1.143 0.939-2.080 2.082-2.080s2.082 0.937 2.082 2.080v2.409zM32.489 17.429v5.611c0 1.143-0.937 2.062-2.080 2.062s-2.082-0.919-2.082-2.062v-5.509l-3.979 1.184-2.674-1.246v5.47c0 4.795 3.938 8.672 8.754 8.672 4.835 0 8.754-3.919 8.754-8.754v0-5.429h-6.693z"></path>
</symbol>

<symbol id="icon-arrow" viewBox="0 0 21 32">
<path fill="#fff" style="fill: var(--color1, #fff)" d="M19.042 18.067l-17.21-17.21c-0.184-0.197-0.445-0.32-0.735-0.32-0.008 0-0.015 0-0.023 0l0.001-0c-0.146 0.002-0.284 0.033-0.41 0.087l0.007-0.003c-0.395 0.164-0.669 0.546-0.672 0.992v25.278c0 0.437 0.269 0.823 0.672 0.992 0.119 0.051 0.257 0.081 0.402 0.083h0.001c0.296-0.002 0.564-0.124 0.757-0.32l5.244-5.242 3.209 7.597c0.17 0.388 0.55 0.655 0.993 0.655 0.151 0 0.295-0.031 0.426-0.087l-0.007 0.003 2.974-1.261c0.389-0.169 0.656-0.55 0.656-0.994 0-0.151-0.031-0.295-0.087-0.425l0.003 0.007-3.377-8h6.419c0.446-0.003 0.828-0.277 0.989-0.665l0.003-0.007c0.054-0.121 0.085-0.262 0.085-0.411 0-0.294-0.123-0.56-0.32-0.748l-0-0z"></path>
</symbol>



<symbol id="icon-Chart" viewBox="0 0 32 32">
<path fill="#000" style="fill: var(--color1, #000)" d="M16.507 3.263l-9.090 2.6c-3.313 0.947-4.687 3.486-3.8 7.020l2.433 9.69c0.888 3.534 3.268 5 6.58 4.053l9.091-2.599c3.313-0.947 4.679-3.484 3.791-7.018l-2.433-9.69c-0.888-3.535-3.26-5.003-6.573-4.056z"></path>
<path fill="#11b5e4" style="fill: var(--color2, #11b5e4)" opacity="0.5" d="M20.987 15.961l-1.651-6.672c-0.599-2.42-2.098-3.505-4.068-2.95l-6.674 1.88c-2.003 0.564-2.779 2.29-2.18 4.71l1.651 6.672c0.608 2.459 2.071 3.512 4.074 2.948l6.675-1.88c1.971-0.555 2.782-2.248 2.173-4.708z"></path>
<path fill="#00acdd" style="fill: var(--color3, #00acdd)" d="M24.411 7.834h-9.411c-3.429 0-5.372 2.073-5.372 5.732v10.032c0 3.659 1.943 5.732 5.372 5.732h9.411c3.429 0 5.364-2.073 5.364-5.732v-10.031c0-3.659-1.934-5.732-5.364-5.732z"></path>
<path fill="#000" style="fill: var(--color1, #000)" d="M24.411 8.278c0.245 0 0.444-0.199 0.444-0.444s-0.199-0.444-0.444-0.444v0 0.889zM24.411 7.389c-0.245 0-0.444 0.199-0.444 0.444s0.199 0.444 0.444 0.444v0-0.889zM24.411 7.389h-9.411v0.889h9.411v-0.889zM15 7.389c-1.805 0-3.278 0.548-4.296 1.634-1.014 1.082-1.52 2.638-1.52 4.542h0.889c0-1.754 0.465-3.065 1.28-3.934 0.811-0.865 2.024-1.353 3.648-1.353v-0.889zM9.183 13.566v10.032h0.889v-10.031h-0.889zM9.183 23.597c0 1.905 0.507 3.46 1.52 4.542 1.018 1.086 2.491 1.635 4.296 1.635v-0.889c-1.624 0-2.837-0.489-3.648-1.354-0.815-0.869-1.28-2.18-1.28-3.934h-0.889zM15 29.774h9.411v-0.889h-9.411v0.889zM24.411 29.774c1.806 0 3.276-0.548 4.292-1.635 1.012-1.082 1.516-2.638 1.516-4.542h-0.889c0 1.755-0.463 3.066-1.276 3.935-0.809 0.865-2.020 1.353-3.644 1.353v0.889zM30.219 23.597v-10.031h-0.889v10.031h0.889zM30.219 13.566c0-1.904-0.504-3.46-1.516-4.542-1.016-1.086-2.487-1.635-4.292-1.635v0.889c1.624 0 2.835 0.488 3.643 1.353 0.813 0.869 1.276 2.18 1.276 3.935h0.889z"></path>
<path fill="#000" style="fill: var(--color1, #000)" d="M19.736 12.228c-0.456 0-0.832 0.401-0.832 0.898v10.91c0 0.488 0.376 0.889 0.832 0.889 0.466 0 0.842-0.401 0.842-0.889v-10.91c0-0.497-0.376-0.898-0.842-0.898zM15.036 15.754c-0.456 0-0.832 0.401-0.832 0.898v7.385c0 0.487 0.376 0.889 0.832 0.889 0.466 0 0.842-0.402 0.842-0.889v-7.385c0-0.497-0.376-0.898-0.842-0.898zM23.533 20.55c0-0.496 0.376-0.898 0.842-0.898 0.457 0 0.833 0.401 0.833 0.898v3.488c0 0.487-0.376 0.888-0.842 0.888-0.457 0-0.833-0.401-0.833-0.889v-3.487z"></path>
<path fill="#000" style="fill: var(--color1, #000)" d="M19.081 13.127c0-0.411 0.308-0.72 0.655-0.72v-0.356c-0.567 0-1.010 0.493-1.010 1.076h0.356zM19.081 24.037v-10.91h-0.356v10.91h0.356zM19.736 24.748c-0.348 0-0.655-0.311-0.655-0.711h-0.356c0 0.575 0.445 1.067 1.011 1.067v-0.356zM20.4 24.037c0 0.399-0.306 0.711-0.664 0.711v0.356c0.573 0 1.020-0.491 1.020-1.067h-0.356zM20.4 13.127v10.91h0.356v-10.91h-0.356zM19.736 12.407c0.357 0 0.664 0.31 0.664 0.72h0.356c0-0.584-0.445-1.076-1.020-1.076v0.356zM14.38 16.652c0-0.411 0.308-0.72 0.655-0.72v-0.356c-0.567 0-1.010 0.493-1.010 1.076h0.356zM14.38 24.037v-7.385h-0.356v7.385h0.356zM15.035 24.748c-0.348 0-0.655-0.311-0.655-0.711h-0.356c0 0.574 0.444 1.067 1.010 1.067v-0.356zM15.699 24.037c0 0.399-0.306 0.711-0.664 0.711v0.356c0.573 0 1.020-0.491 1.020-1.067h-0.356zM15.699 16.652v7.385h0.356v-7.385h-0.356zM15.035 15.932c0.357 0 0.664 0.31 0.664 0.72h0.356c0-0.584-0.445-1.076-1.020-1.076v0.356zM24.375 19.475c-0.575 0-1.020 0.492-1.020 1.076h0.356c0-0.41 0.307-0.72 0.664-0.72v-0.356zM25.385 20.55c0-0.583-0.444-1.076-1.011-1.076v0.356c0.347 0 0.655 0.309 0.655 0.72h0.356zM25.385 24.037v-3.487h-0.356v3.487h0.356zM24.366 25.104c0.573 0 1.020-0.491 1.020-1.067h-0.356c0 0.399-0.306 0.711-0.664 0.711v0.356zM23.355 24.037c0 0.575 0.445 1.067 1.011 1.067v-0.356c-0.348 0-0.655-0.311-0.655-0.711h-0.356zM23.355 20.55v3.487h0.356v-3.487h-0.356z"></path>
</symbol>


<symbol id="icon-Activity" viewBox="0 0 32 32">
<path fill="#000" style="fill: var(--color1, #000)" d="M17.996 4.024l-9.328 2.871c-3.4 1.046-4.849 3.681-4.008 7.285l2.304 9.881c0.841 3.604 3.243 5.053 6.642 4.007l9.328-2.871c3.4-1.046 4.84-3.679 4-7.283l-2.305-9.881c-0.841-3.604-3.233-5.056-6.633-4.010z"></path>
<path fill="#e31313" style="fill: var(--color4, #e31313)" opacity="0.5" d="M17.329 8.444l-6.161 1.896c-2.246 0.691-3.218 2.366-2.69 4.632l1.449 6.211c0.529 2.266 2.1 3.158 4.345 2.467l6.162-1.896c2.245-0.691 3.212-2.365 2.684-4.63l-1.449-6.211c-0.528-2.266-2.094-3.16-4.34-2.469z"></path>
<path fill="#f03e3d" style="fill: var(--color5, #f03e3d)" d="M24.149 9.216h-8.815c-3.447 0-5.765 2.654-5.765 6.602v9.112c0 3.937 2.318 6.591 5.765 6.591h8.816c3.447 0 5.755-2.654 5.755-6.591v-9.112c0-3.948-2.308-6.603-5.755-6.603z"></path>
<path fill="none" stroke="#000" style="stroke: var(--color1, #000)" stroke-linejoin="round" stroke-linecap="round" stroke-miterlimit="4" stroke-width="0.4776" d="M24.149 8.978h-8.815c-1.789 0-3.297 0.691-4.355 1.902-1.056 1.208-1.649 2.919-1.649 4.938v9.113c0 2.015 0.593 3.722 1.649 4.929 1.058 1.211 2.566 1.901 4.355 1.901h8.815c1.789 0 3.295-0.691 4.35-1.901 1.053-1.207 1.644-2.915 1.644-4.929v-9.112c0-2.020-0.59-3.73-1.643-4.939-1.056-1.212-2.561-1.903-4.351-1.903z"></path>
<path fill="#000" style="fill: var(--color1, #000)" d="M30.984 7.578c-0.825 0-1.494 0.734-1.494 1.639s0.669 1.639 1.494 1.639c0.825 0 1.494-0.734 1.494-1.639 0-0.435-0.158-0.852-0.438-1.159s-0.661-0.48-1.056-0.48z"></path>
<path fill="#000" style="fill: var(--color1, #000)" d="M25.056 18.394l-2.906 4.113c-0.114 0.171-0.295 0.291-0.504 0.323l-0.004 0.001c-0.028 0.004-0.059 0.006-0.092 0.006-0.182 0-0.349-0.069-0.474-0.183l0.001 0.001-2.789-2.399-2.513 3.564c-0.182 0.317-0.536 0.459-0.862 0.346s-0.541-0.452-0.524-0.826c-0-0.003-0-0.007-0-0.010 0-0.187 0.060-0.36 0.163-0.501l-0.002 0.002 3.004-4.25c0.113-0.17 0.291-0.289 0.497-0.323l0.004-0.001c0.201-0.029 0.403 0.031 0.563 0.167l2.789 2.409 2.45-3.457c0.117-0.178 0.296-0.296 0.495-0.328s0.401 0.027 0.56 0.161c0.328 0.282 0.392 0.799 0.143 1.165v0.019z"></path>
</symbol>


<symbol id="icon-menu" viewBox="0 0 29 32">
<path fill="none" stroke="#173a56" style="stroke: var(--color1, #173a56)" stroke-linejoin="round" stroke-linecap="round" stroke-miterlimit="4" stroke-width="3.0968" d="M3.613 16h21.677M3.613 8h21.677M3.613 24h21.677"></path>
</symbol>

</defs>
</svg>
